<svg xmlns="http://www.w3.org/2000/svg" viewBox="0 0 100 100">
  <polygon points="20,40 14,16 38,26" fill="#b45309"/>
  <polygon points="80,40 86,16 62,26" fill="#b45309"/>
  <circle cx="50" cy="58" r="32" fill="#b45309"/>
  <ellipse cx="50" cy="66" rx="14" ry="10" fill="#78350f"/>
  <circle cx="45" cy="66" r="2.5" fill="#451a03"/>
  <circle cx="55" cy="66" r="2.5" fill="#451a03"/>
  <circle cx="38" cy="50" r="3.5" fill="#1e1b4b"/>
  <circle cx="62" cy="50" r="3.5" fill="#1e1b4b"/>
  <!-- Шляпа -->
  <ellipse cx="50" cy="26" rx="26" ry="5" fill="#1c1917"/>
  <path d="M34 26 C34 14 66 14 66 26 Z" fill="#292524"/>
  <!-- Монокль -->
  <circle cx="62" cy="50" r="6.5" fill="none" stroke="#fbbf24" stroke-width="2"/>
  <line x1="68" y1="52" x2="74" y2="70" stroke="#fbbf24" stroke-width="1.5"/>
  <!-- Усики -->
  <path d="M42 63 Q46 59 50 63 Q54 59 58 63 Q62 66 59 68 Q54 65 50 65 Q46 65 41 68 Q38 66 42 63 Z" fill="#451a03"/>
</svg>
